<svg xmlns="http://www.w3.org/2000/svg" width="65" height="65" viewBox="0 0 225 225" version="1.1"><path d="M 109.768 9.725 C 111.565 9.947, 114.265 9.943, 115.768 9.715 C 117.271 9.486, 115.800 9.304, 112.500 9.310 C 109.200 9.315, 107.971 9.502, 109.768 9.725 M 98.750 10.662 C 99.438 10.940, 100.563 10.940, 101.250 10.662 C 101.938 10.385, 101.375 10.158, 100 10.158 C 98.625 10.158, 98.063 10.385, 98.750 10.662 M 124.269 10.693 C 125.242 10.947, 126.592 10.930, 127.269 10.656 C 127.946 10.382, 127.150 10.175, 125.500 10.195 C 123.850 10.215, 123.296 10.439, 124.269 10.693 M 92.813 11.683 C 93.534 11.972, 94.397 11.936, 94.729 11.604 C 95.061 11.272, 94.471 11.036, 93.417 11.079 C 92.252 11.127, 92.015 11.364, 92.813 11.683 M 87.813 12.683 C 88.534 12.972, 89.397 12.936, 89.729 12.604 C 90.061 12.272, 89.471 12.036, 88.417 12.079 C 87.252 12.127, 87.015 12.364, 87.813 12.683 M 135.813 12.683 C 136.534 12.972, 137.397 12.936, 137.729 12.604 C 138.061 12.272, 137.471 12.036, 136.417 12.079 C 135.252 12.127, 135.015 12.364, 135.813 12.683 M 107.784 13.738 C 110.689 13.941, 115.189 13.939, 117.784 13.734 C 120.378 13.528, 118 13.363, 112.500 13.365 C 107 13.368, 104.878 13.536, 107.784 13.738 M 95.750 14.662 C 96.438 14.940, 97.563 14.940, 98.250 14.662 C 98.938 14.385, 98.375 14.158, 97 14.158 C 95.625 14.158, 95.063 14.385, 95.750 14.662 M 126.750 14.662 C 127.438 14.940, 128.563 14.940, 129.250 14.662 C 129.938 14.385, 129.375 14.158, 128 14.158 C 126.625 14.158, 126.063 14.385, 126.750 14.662 M 90.813 15.683 C 91.534 15.972, 92.397 15.936, 92.729 15.604 C 93.061 15.272, 92.471 15.036, 91.417 15.079 C 90.252 15.127, 90.015 15.364, 90.813 15.683 M 132.813 15.683 C 133.534 15.972, 134.397 15.936, 134.729 15.604 C 135.061 15.272, 134.471 15.036, 133.417 15.079 C 132.252 15.127, 132.015 15.364, 132.813 15.683 M 86.813 16.683 C 87.534 16.972, 88.397 16.936, 88.729 16.604 C 89.061 16.272, 88.471 16.036, 87.417 16.079 C 86.252 16.127, 86.015 16.364, 86.813 16.683 M 51.872 33.750 C 50.629 35.336, 50.664 35.371, 52.250 34.128 C 53.212 33.373, 54 32.585, 54 32.378 C 54 31.555, 53.179 32.084, 51.872 33.750 M 178.500 34 C 179.495 35.100, 180.535 36, 180.810 36 C 181.085 36, 180.495 35.100, 179.500 34 C 178.505 32.900, 177.465 32, 177.190 32 C 176.915 32, 177.505 32.900, 178.500 34 M 43.437 36.250 L 40.500 39.500 43.750 36.563 C 45.538 34.948, 47 33.485, 47 33.313 C 47 32.540, 46.175 33.221, 43.437 36.250 M 177 37.500 C 178.292 38.875, 179.574 40, 179.849 40 C 180.124 40, 179.292 38.875, 178 37.500 C 176.708 36.125, 175.426 35, 175.151 35 C 174.876 35, 175.708 36.125, 177 37.500 M 41.971 42.750 L 35.500 49.500 42.250 43.029 C 48.520 37.018, 49.457 36, 48.721 36 C 48.568 36, 45.530 39.038, 41.971 42.750 M 99.750 38.662 C 100.438 38.940, 101.563 38.940, 102.250 38.662 C 102.938 38.385, 102.375 38.158, 101 38.158 C 99.625 38.158, 99.063 38.385, 99.750 38.662 M 115.813 38.683 C 116.534 38.972, 117.397 38.936, 117.729 38.604 C 118.061 38.272, 117.471 38.036, 116.417 38.079 C 115.252 38.127, 115.015 38.364, 115.813 38.683 M 35.946 43.750 L 32.500 47.500 36.250 44.054 C 38.313 42.158, 40 40.471, 40 40.304 C 40 39.540, 39.154 40.260, 35.946 43.750 M 105.768 40.725 C 107.565 40.947, 110.265 40.943, 111.768 40.715 C 113.271 40.486, 111.800 40.304, 108.500 40.310 C 105.200 40.315, 103.971 40.502, 105.768 40.725 M 190.500 46 C 191.495 47.100, 192.535 48, 192.810 48 C 193.085 48, 192.495 47.100, 191.500 46 C 190.505 44.900, 189.465 44, 189.190 44 C 188.915 44, 189.505 44.900, 190.500 46 M 187 47.500 C 188.292 48.875, 189.574 50, 189.849 50 C 190.124 50, 189.292 48.875, 188 47.500 C 186.708 46.125, 185.426 45, 185.151 45 C 184.876 45, 185.708 46.125, 187 47.500 M 141.500 53 C 144.209 55.750, 146.650 58, 146.925 58 C 147.200 58, 145.209 55.750, 142.500 53 C 139.791 50.250, 137.350 48, 137.075 48 C 136.800 48, 138.791 50.250, 141.500 53 M 72.405 52.250 L 70.500 54.500 72.750 52.595 C 73.987 51.547, 75 50.535, 75 50.345 C 75 49.545, 74.195 50.136, 72.405 52.250 M 32.872 52.750 C 31.629 54.336, 31.664 54.371, 33.250 53.128 C 34.212 52.373, 35 51.585, 35 51.378 C 35 50.555, 34.179 51.084, 32.872 52.750 M 73.946 54.750 L 70.500 58.500 74.250 55.054 C 76.313 53.158, 78 51.471, 78 51.304 C 78 50.540, 77.154 51.260, 73.946 54.750 M 144 59.378 C 144 59.585, 144.787 60.373, 145.750 61.128 C 147.336 62.371, 147.371 62.336, 146.128 60.750 C 144.821 59.084, 144 58.555, 144 59.378 M 148 60.378 C 148 60.585, 148.787 61.373, 149.750 62.128 C 151.336 63.371, 151.371 63.336, 150.128 61.750 C 148.821 60.084, 148 59.555, 148 60.378 M 64.079 72.583 C 64.127 73.748, 64.364 73.985, 64.683 73.188 C 64.972 72.466, 64.936 71.603, 64.604 71.271 C 64.272 70.939, 64.036 71.529, 64.079 72.583 M 61.079 74.583 C 61.127 75.748, 61.364 75.985, 61.683 75.188 C 61.972 74.466, 61.936 73.603, 61.604 73.271 C 61.272 72.939, 61.036 73.529, 61.079 74.583 M 63.232 79 C 63.232 80.925, 63.438 81.713, 63.689 80.750 C 63.941 79.787, 63.941 78.213, 63.689 77.250 C 63.438 76.287, 63.232 77.075, 63.232 79 M 105.507 77.989 C 105.157 78.555, 105.558 78.723, 106.448 78.382 C 108.180 77.717, 108.497 77, 107.059 77 C 106.541 77, 105.843 77.445, 105.507 77.989 M 60.286 83.500 C 60.294 86.250, 60.488 87.256, 60.718 85.736 C 60.947 84.216, 60.941 81.966, 60.704 80.736 C 60.467 79.506, 60.279 80.750, 60.286 83.500 M 92 86 C 90.075 87.054, 88.860 87.935, 89.300 87.958 C 90.359 88.014, 96 85.081, 96 84.474 C 96 83.820, 95.941 83.842, 92 86 M 63.136 87.750 C 63.032 90.236, 63.412 90.996, 64.750 90.985 C 65.874 90.975, 66.089 90.707, 65.351 90.235 C 64.719 89.831, 63.993 88.375, 63.737 87 C 63.344 84.883, 63.251 84.998, 63.136 87.750 M 16.079 87.583 C 16.127 88.748, 16.364 88.985, 16.683 88.188 C 16.972 87.466, 16.936 86.603, 16.604 86.271 C 16.272 85.939, 16.036 86.529, 16.079 87.583 M 162.079 89.583 C 162.127 90.748, 162.364 90.985, 162.683 90.188 C 162.972 89.466, 162.936 88.603, 162.604 88.271 C 162.272 87.939, 162.036 88.529, 162.079 89.583 M 15.079 91.583 C 15.127 92.748, 15.364 92.985, 15.683 92.188 C 15.972 91.466, 15.936 90.603, 15.604 90.271 C 15.272 89.939, 15.036 90.529, 15.079 91.583 M 70.269 90.693 C 71.242 90.947, 72.592 90.930, 73.269 90.656 C 73.946 90.382, 73.150 90.175, 71.500 90.195 C 69.850 90.215, 69.296 90.439, 70.269 90.693 M 160 92.927 C 160 93.986, 159.213 95.059, 158.250 95.311 C 156.933 95.655, 157.057 95.797, 158.750 95.884 C 160.514 95.975, 161 95.460, 161 93.500 C 161 92.125, 160.775 91, 160.500 91 C 160.225 91, 160 91.867, 160 92.927 M 213.079 92.583 C 213.127 93.748, 213.364 93.985, 213.683 93.188 C 213.972 92.466, 213.936 91.603, 213.604 91.271 C 213.272 90.939, 213.036 91.529, 213.079 92.583 M 11.079 93.583 C 11.127 94.748, 11.364 94.985, 11.683 94.188 C 11.972 93.466, 11.936 92.603, 11.604 92.271 C 11.272 91.939, 11.036 92.529, 11.079 93.583 M 74.813 92.683 C 75.534 92.972, 76.397 92.936, 76.729 92.604 C 77.061 92.272, 76.471 92.036, 75.417 92.079 C 74.252 92.127, 74.015 92.364, 74.813 92.683 M 68.813 93.683 C 69.534 93.972, 70.397 93.936, 70.729 93.604 C 71.061 93.272, 70.471 93.036, 69.417 93.079 C 68.252 93.127, 68.015 93.364, 68.813 93.683 M 59.813 94.683 C 60.534 94.972, 61.397 94.936, 61.729 94.604 C 62.061 94.272, 61.471 94.036, 60.417 94.079 C 59.252 94.127, 59.015 94.364, 59.813 94.683 M 163 95.441 C 163 96.234, 163.408 97.134, 163.907 97.442 C 164.405 97.751, 164.578 97.102, 164.290 96.001 C 163.679 93.666, 163 93.371, 163 95.441 M 210.158 96 C 210.158 97.375, 210.385 97.938, 210.662 97.250 C 210.940 96.563, 210.940 95.438, 210.662 94.750 C 210.385 94.063, 210.158 94.625, 210.158 96 M 14.158 97 C 14.158 98.375, 14.385 98.938, 14.662 98.250 C 14.940 97.563, 14.940 96.438, 14.662 95.750 C 14.385 95.063, 14.158 95.625, 14.158 97 M 64.377 96.245 C 64.680 98.141, 66.935 101.674, 66.970 100.309 C 66.986 99.654, 66.543 98.835, 65.984 98.490 C 65.425 98.144, 65.207 97.474, 65.500 97 C 65.793 96.526, 65.615 95.880, 65.104 95.564 C 64.593 95.249, 64.266 95.555, 64.377 96.245 M 148.813 95.683 C 149.534 95.972, 150.397 95.936, 150.729 95.604 C 151.061 95.272, 150.471 95.036, 149.417 95.079 C 148.252 95.127, 148.015 95.364, 148.813 95.683 M 214.158 98 C 214.158 99.375, 214.385 99.938, 214.662 99.250 C 214.940 98.563, 214.940 97.438, 214.662 96.750 C 214.385 96.063, 214.158 96.625, 214.158 98 M 120.564 98.293 C 120.940 99.279, 121.499 99.834, 121.807 99.526 C 122.115 99.219, 121.808 98.412, 121.124 97.733 C 120.136 96.753, 120.022 96.868, 120.564 98.293 M 141.924 99.750 L 139.500 102.500 142.250 100.076 C 143.762 98.742, 145 97.505, 145 97.326 C 145 96.541, 144.190 97.180, 141.924 99.750 M 10.158 100 C 10.158 101.375, 10.385 101.938, 10.662 101.250 C 10.940 100.563, 10.940 99.438, 10.662 98.750 C 10.385 98.063, 10.158 98.625, 10.158 100 M 54.122 99.354 C 52.935 100.783, 52.932 106.160, 54.118 105.427 C 54.500 105.191, 54.576 104.096, 54.288 102.994 C 54 101.891, 54.322 100.317, 55.004 99.495 C 55.687 98.673, 56.020 98, 55.745 98 C 55.470 98, 54.739 98.609, 54.122 99.354 M 114 98.393 C 114 98.609, 114.698 99.054, 115.552 99.382 C 116.442 99.723, 116.843 99.555, 116.493 98.989 C 115.906 98.038, 114 97.583, 114 98.393 M 147.500 98.892 C 144.645 100.136, 141.687 103.685, 142.461 104.937 C 142.822 105.522, 142.648 106, 142.072 106 C 140.239 106, 137.181 115.249, 135.459 126 C 134.043 134.843, 131.707 144.666, 130.436 147.125 C 128.556 150.759, 124.265 154, 121.333 154 C 115.450 154, 104.402 146.985, 92.187 135.494 L 84.062 127.851 80.531 130.544 C 78.589 132.025, 77 133.634, 77 134.119 C 77 134.603, 76.438 135.013, 75.750 135.028 C 75.063 135.043, 72.757 136.375, 70.627 137.987 L 66.754 140.917 73.127 147.560 C 80.233 154.967, 87.039 158.717, 103.046 164.044 C 119.035 169.366, 127.709 168.154, 136.744 159.337 C 139.360 156.784, 140.825 155.023, 140 155.424 C 139.175 155.824, 139.562 155.218, 140.861 154.076 C 142.159 152.934, 142.834 151.993, 142.361 151.985 C 141.887 151.976, 142 151.639, 142.610 151.235 C 143.221 150.831, 144.480 149.018, 145.409 147.207 C 147.061 143.983, 151.386 141.053, 152.641 142.308 C 152.990 142.656, 151.902 144.223, 150.224 145.790 C 148.547 147.358, 146.669 150.514, 146.053 152.804 C 144.552 158.378, 141.842 161.161, 133.500 165.695 C 123.801 170.967, 116.964 170.950, 101.531 165.616 C 95.498 163.531, 89.268 161.156, 87.688 160.339 C 86.107 159.521, 84.665 159.002, 84.482 159.184 C 84.300 159.367, 87.308 162.213, 91.168 165.508 C 109.722 181.352, 124.474 185.601, 137.801 178.942 C 144.876 175.406, 154.945 165.191, 159.372 157.058 L 162.193 151.874 158.097 147.977 C 154.082 144.158, 152.976 142, 155.033 142 C 155.602 142, 157.686 143.619, 159.664 145.597 C 163.851 149.784, 164.016 149.658, 167.052 140 C 169.598 131.899, 170.814 112.997, 169.119 107.862 C 168.478 105.919, 166.606 103.039, 164.960 101.461 C 162.419 99.027, 161.021 98.549, 155.733 98.306 C 152.305 98.149, 148.600 98.413, 147.500 98.892 M 211.272 105 C 211.272 107.475, 211.467 108.487, 211.706 107.250 C 211.944 106.013, 211.944 103.987, 211.706 102.750 C 211.467 101.513, 211.272 102.525, 211.272 105 M 103.083 102.283 C 103.313 102.439, 104.400 103.226, 105.500 104.033 C 107.350 105.390, 107.397 105.369, 106.128 103.750 C 105.373 102.787, 104.285 102, 103.711 102 C 103.137 102, 102.854 102.127, 103.083 102.283 M 13.365 112.500 C 13.368 118, 13.536 120.122, 13.738 117.216 C 13.941 114.311, 13.939 109.811, 13.734 107.216 C 13.528 104.622, 13.363 107, 13.365 112.500 M 108.813 105.683 C 109.534 105.972, 110.397 105.936, 110.729 105.604 C 111.061 105.272, 110.471 105.036, 109.417 105.079 C 108.252 105.127, 108.015 105.364, 108.813 105.683 M 215.343 112.500 C 215.346 116.900, 215.522 118.576, 215.733 116.224 C 215.945 113.872, 215.942 110.272, 215.727 108.224 C 215.512 106.176, 215.339 108.100, 215.343 112.500 M 87.459 107.067 C 87.096 107.653, 87.070 108.403, 87.400 108.733 C 87.730 109.063, 88 108.782, 88 108.108 C 88 107.434, 88.520 107.203, 89.155 107.595 C 89.870 108.038, 90.038 107.870, 89.595 107.155 C 88.711 105.724, 88.299 105.707, 87.459 107.067 M 112 107 C 111.099 107.582, 110.975 107.975, 111.691 107.985 C 112.346 107.993, 113.160 107.550, 113.500 107 C 114.267 105.758, 113.921 105.758, 112 107 M 9.310 112.500 C 9.315 115.800, 9.502 117.029, 9.725 115.232 C 9.947 113.435, 9.943 110.735, 9.715 109.232 C 9.486 107.729, 9.304 109.200, 9.310 112.500 M 172.158 112 C 172.158 113.375, 172.385 113.938, 172.662 113.250 C 172.940 112.563, 172.940 111.438, 172.662 110.750 C 172.385 110.063, 172.158 110.625, 172.158 112 M 79.879 114.279 C 80.362 114.762, 82.049 114.995, 83.628 114.798 C 86.272 114.468, 86.202 114.399, 82.751 113.921 C 80.601 113.623, 79.376 113.776, 79.879 114.279 M 96.564 114.707 C 96.022 116.132, 96.136 116.247, 97.124 115.267 C 97.808 114.588, 98.115 113.781, 97.807 113.474 C 97.499 113.166, 96.940 113.721, 96.564 114.707 M 129.079 114.583 C 129.127 115.748, 129.364 115.985, 129.683 115.188 C 129.972 114.466, 129.936 113.603, 129.604 113.271 C 129.272 112.939, 129.036 113.529, 129.079 114.583 M 90.980 115.524 C 90.284 116.362, 89.909 117.242, 90.145 117.479 C 90.382 117.715, 91.125 117.030, 91.796 115.955 C 93.248 113.630, 92.764 113.375, 90.980 115.524 M 127.195 118.500 C 127.215 120.150, 127.439 120.704, 127.693 119.731 C 127.947 118.758, 127.930 117.408, 127.656 116.731 C 127.382 116.054, 127.175 116.850, 127.195 118.500 M 158 116.393 C 158 116.609, 158.698 117.054, 159.552 117.382 C 160.442 117.723, 160.843 117.555, 160.493 116.989 C 159.906 116.038, 158 115.583, 158 116.393 M 211.272 120 C 211.272 122.475, 211.467 123.487, 211.706 122.250 C 211.944 121.013, 211.944 118.987, 211.706 117.750 C 211.467 116.513, 211.272 117.525, 211.272 120 M 133.009 118.489 C 132.329 119.308, 131.374 119.731, 130.887 119.430 C 130.399 119.129, 130 119.662, 130 120.615 C 130 122.096, 130.365 122.006, 132.500 120 C 133.875 118.708, 135 117.505, 135 117.326 C 135 116.601, 134.177 117.082, 133.009 118.489 M 95.502 119.003 C 96.106 119.980, 95.762 120.171, 94.155 119.751 C 92.968 119.440, 92.249 119.595, 92.558 120.093 C 93.288 121.275, 95.721 121.260, 96.457 120.069 C 96.774 119.557, 96.506 118.813, 95.862 118.415 C 95.080 117.932, 94.961 118.127, 95.502 119.003 M 82.958 123.250 C 87.102 127.665, 88 128.459, 88 127.708 C 88 127.548, 85.862 125.410, 83.250 122.958 L 78.500 118.500 82.958 123.250 M 58.564 122.293 C 58.940 123.279, 59.499 123.834, 59.807 123.526 C 60.115 123.219, 59.808 122.412, 59.124 121.733 C 58.136 120.753, 58.022 120.868, 58.564 122.293 M 172.252 124.500 C 172.263 126.700, 172.468 127.482, 172.707 126.238 C 172.946 124.994, 172.937 123.194, 172.687 122.238 C 172.437 121.282, 172.241 122.300, 172.252 124.500 M 133.079 123.583 C 133.127 124.748, 133.364 124.985, 133.683 124.188 C 133.972 123.466, 133.936 122.603, 133.604 122.271 C 133.272 121.939, 133.036 122.529, 133.079 123.583 M 10.195 125.500 C 10.215 127.150, 10.439 127.704, 10.693 126.731 C 10.947 125.758, 10.930 124.408, 10.656 123.731 C 10.382 123.054, 10.175 123.850, 10.195 125.500 M 214.158 127 C 214.158 128.375, 214.385 128.938, 214.662 128.250 C 214.940 127.563, 214.940 126.438, 214.662 125.750 C 214.385 125.063, 214.158 125.625, 214.158 127 M 14.158 128 C 14.158 129.375, 14.385 129.938, 14.662 129.250 C 14.940 128.563, 14.940 127.438, 14.662 126.750 C 14.385 126.063, 14.158 126.625, 14.158 128 M 60.459 127.067 C 60.096 127.653, 60.070 128.403, 60.400 128.733 C 60.730 129.063, 61 128.782, 61 128.108 C 61 127.434, 61.520 127.203, 62.155 127.595 C 62.870 128.038, 63.038 127.870, 62.595 127.155 C 61.711 125.724, 61.299 125.707, 60.459 127.067 M 76.875 127.500 C 76.806 127.775, 76.687 128.338, 76.610 128.750 C 76.533 129.162, 76.073 130.175, 75.588 131 C 74.874 132.216, 74.960 132.265, 76.043 131.260 C 77.306 130.088, 78.298 127, 77.412 127 C 77.185 127, 76.944 127.225, 76.875 127.500 M 132.079 128.583 C 132.127 129.748, 132.364 129.985, 132.683 129.188 C 132.972 128.466, 132.936 127.603, 132.604 127.271 C 132.272 126.939, 132.036 127.529, 132.079 128.583 M 210.158 129 C 210.158 130.375, 210.385 130.938, 210.662 130.250 C 210.940 129.563, 210.940 128.438, 210.662 127.750 C 210.385 127.063, 210.158 127.625, 210.158 129 M 100.750 128.662 C 101.438 128.940, 102.563 128.940, 103.250 128.662 C 103.938 128.385, 103.375 128.158, 102 128.158 C 100.625 128.158, 100.063 128.385, 100.750 128.662 M 64.336 131.669 C 64.703 132.037, 64.216 133.274, 63.252 134.419 C 61.505 136.495, 61.506 136.495, 63.726 134.616 C 65.692 132.954, 65.988 131, 64.274 131 C 63.940 131, 63.968 131.301, 64.336 131.669 M 171.158 133 C 171.158 134.375, 171.385 134.938, 171.662 134.250 C 171.940 133.563, 171.940 132.438, 171.662 131.750 C 171.385 131.063, 171.158 131.625, 171.158 133 M 213.079 132.583 C 213.127 133.748, 213.364 133.985, 213.683 133.188 C 213.972 132.466, 213.936 131.603, 213.604 131.271 C 213.272 130.939, 213.036 131.529, 213.079 132.583 M 15.079 133.583 C 15.127 134.748, 15.364 134.985, 15.683 134.188 C 15.972 133.466, 15.936 132.603, 15.604 132.271 C 15.272 131.939, 15.036 132.529, 15.079 133.583 M 71.872 133.750 C 70.629 135.336, 70.664 135.371, 72.250 134.128 C 73.916 132.821, 74.445 132, 73.622 132 C 73.415 132, 72.627 132.787, 71.872 133.750 M 58.079 134.583 C 58.127 135.748, 58.364 135.985, 58.683 135.188 C 58.972 134.466, 58.936 133.603, 58.604 133.271 C 58.272 132.939, 58.036 133.529, 58.079 134.583 M 209.079 134.583 C 209.127 135.748, 209.364 135.985, 209.683 135.188 C 209.972 134.466, 209.936 133.603, 209.604 133.271 C 209.272 132.939, 209.036 133.529, 209.079 134.583 M 78 134.689 C 78 136.559, 90.501 145.832, 91.574 144.759 C 91.786 144.547, 89.933 143.092, 87.456 141.527 C 84.980 139.961, 81.839 137.566, 80.476 136.204 C 79.114 134.842, 78 134.160, 78 134.689 M 12.079 136.583 C 12.127 137.748, 12.364 137.985, 12.683 137.188 C 12.972 136.466, 12.936 135.603, 12.604 135.271 C 12.272 134.939, 12.036 135.529, 12.079 136.583 M 67.872 136.750 C 66.629 138.336, 66.664 138.371, 68.250 137.128 C 69.213 136.373, 70 135.585, 70 135.378 C 70 134.555, 69.179 135.084, 67.872 136.750 M 96.500 137 C 96.840 137.550, 97.316 138, 97.559 138 C 97.802 138, 98 137.550, 98 137 C 98 136.450, 97.523 136, 96.941 136 C 96.359 136, 96.160 136.450, 96.500 137 M 57.079 138.583 C 57.127 139.748, 57.364 139.985, 57.683 139.188 C 57.972 138.466, 57.936 137.603, 57.604 137.271 C 57.272 136.939, 57.036 137.529, 57.079 138.583 M 118.813 137.683 C 119.534 137.972, 120.397 137.936, 120.729 137.604 C 121.061 137.272, 120.471 137.036, 119.417 137.079 C 118.252 137.127, 118.015 137.364, 118.813 137.683 M 100.570 138.887 C 100.269 139.374, 100.805 140.387, 101.761 141.137 C 103.312 142.353, 103.361 142.322, 102.208 140.847 C 101.153 139.497, 101.153 139.100, 102.208 138.676 C 103.095 138.320, 103.126 138.133, 102.309 138.079 C 101.654 138.036, 100.871 138.399, 100.570 138.887 M 54.079 140.583 C 54.127 141.748, 54.364 141.985, 54.683 141.188 C 54.972 140.466, 54.936 139.603, 54.604 139.271 C 54.272 138.939, 54.036 139.529, 54.079 140.583 M 120.507 139.989 C 120.157 140.555, 120.558 140.723, 121.448 140.382 C 123.180 139.717, 123.497 139, 122.059 139 C 121.541 139, 120.843 139.445, 120.507 139.989 M 63 140.378 C 63 140.585, 63.788 141.373, 64.750 142.128 C 66.336 143.371, 66.371 143.336, 65.128 141.750 C 63.821 140.084, 63 139.555, 63 140.378 M 109.750 140.706 C 110.987 140.944, 113.013 140.944, 114.250 140.706 C 115.487 140.467, 114.475 140.272, 112 140.272 C 109.525 140.272, 108.513 140.467, 109.750 140.706 M 56.079 144.583 C 56.127 145.748, 56.364 145.985, 56.683 145.188 C 56.972 144.466, 56.936 143.603, 56.604 143.271 C 56.272 142.939, 56.036 143.529, 56.079 144.583 M 125.345 144.868 L 128.190 145.500 125.997 148.500 L 123.805 151.500 126.402 148.694 C 129.825 144.998, 129.679 143.975, 125.750 144.118 L 122.500 144.237 125.345 144.868 M 53.195 147.500 C 53.215 149.150, 53.439 149.704, 53.693 148.731 C 53.947 147.758, 53.930 146.408, 53.656 145.731 C 53.382 145.054, 53.175 145.850, 53.195 147.500 M 68.500 147 C 69.495 148.100, 70.535 149, 70.810 149 C 71.085 149, 70.495 148.100, 69.500 147 C 68.505 145.900, 67.465 145, 67.190 145 C 66.915 145, 67.505 145.900, 68.500 147 M 55.232 154 C 55.232 155.925, 55.438 156.713, 55.689 155.750 C 55.941 154.787, 55.941 153.213, 55.689 152.250 C 55.438 151.287, 55.232 152.075, 55.232 154 M 119.750 151.662 C 120.438 151.940, 121.563 151.940, 122.250 151.662 C 122.938 151.385, 122.375 151.158, 121 151.158 C 119.625 151.158, 119.063 151.385, 119.750 151.662 M 79 158.500 C 82.543 162.075, 85.667 165, 85.942 165 C 86.217 165, 83.543 162.075, 80 158.500 C 76.457 154.925, 73.333 152, 73.058 152 C 72.783 152, 75.457 154.925, 79 158.500 M 53.195 159.500 C 53.215 161.150, 53.439 161.704, 53.693 160.731 C 53.947 159.758, 53.930 158.408, 53.656 157.731 C 53.382 157.054, 53.175 157.850, 53.195 159.500 M 56.079 162.583 C 56.127 163.748, 56.364 163.985, 56.683 163.188 C 56.972 162.466, 56.936 161.603, 56.604 161.271 C 56.272 160.939, 56.036 161.529, 56.079 162.583 M 89 167.378 C 89 167.585, 89.787 168.373, 90.750 169.128 C 92.336 170.371, 92.371 170.336, 91.128 168.750 C 89.821 167.084, 89 166.555, 89 167.378 M 149.966 172.750 L 144.500 178.500 150.250 173.034 C 155.592 167.956, 156.458 167, 155.716 167 C 155.560 167, 152.972 169.588, 149.966 172.750 M 57 172.378 C 57 172.585, 57.788 173.373, 58.750 174.128 C 60.336 175.371, 60.371 175.336, 59.128 173.750 C 57.821 172.084, 57 171.555, 57 172.378 M 194.872 173.750 C 193.629 175.336, 193.664 175.371, 195.250 174.128 C 196.916 172.821, 197.445 172, 196.622 172 C 196.415 172, 195.627 172.787, 194.872 173.750 M 188.405 176.250 L 186.500 178.500 188.750 176.595 C 190.864 174.805, 191.455 174, 190.655 174 C 190.465 174, 189.453 175.012, 188.405 176.250 M 37 177.500 C 38.292 178.875, 39.574 180, 39.849 180 C 40.124 180, 39.292 178.875, 38 177.500 C 36.708 176.125, 35.426 175, 35.151 175 C 34.876 175, 35.708 176.125, 37 177.500 M 191.405 178.250 L 189.500 180.500 191.750 178.595 C 193.864 176.805, 194.455 176, 193.655 176 C 193.465 176, 192.453 177.012, 191.405 178.250 M 33.500 179 C 34.495 180.100, 35.535 181, 35.810 181 C 36.085 181, 35.495 180.100, 34.500 179 C 33.505 177.900, 32.465 177, 32.190 177 C 31.915 177, 32.505 177.900, 33.500 179 M 62 177.378 C 62 177.585, 62.788 178.373, 63.750 179.128 C 65.336 180.371, 65.371 180.336, 64.128 178.750 C 62.821 177.084, 62 176.555, 62 177.378 M 106.441 179.445 C 107.509 180.300, 108.821 181, 109.358 181 C 110.628 181, 110.061 180.538, 107 179.080 C 104.643 177.958, 104.611 177.978, 106.441 179.445 M 72.813 180.683 C 73.534 180.972, 74.397 180.936, 74.729 180.604 C 75.061 180.272, 74.471 180.036, 73.417 180.079 C 72.252 180.127, 72.015 180.364, 72.813 180.683 M 87.813 180.683 C 88.534 180.972, 89.397 180.936, 89.729 180.604 C 90.061 180.272, 89.471 180.036, 88.417 180.079 C 87.252 180.127, 87.015 180.364, 87.813 180.683 M 138 181.500 C 136.625 182.286, 135.976 182.945, 136.559 182.965 C 137.141 182.984, 138.491 182.339, 139.559 181.532 C 142.028 179.664, 141.239 179.648, 138 181.500 M 78.762 181.707 C 80.006 181.946, 81.806 181.937, 82.762 181.687 C 83.718 181.437, 82.700 181.241, 80.500 181.252 C 78.300 181.263, 77.518 181.468, 78.762 181.707 M 74.813 183.683 C 75.534 183.972, 76.397 183.936, 76.729 183.604 C 77.061 183.272, 76.471 183.036, 75.417 183.079 C 74.252 183.127, 74.015 183.364, 74.813 183.683 M 84.750 183.662 C 85.438 183.940, 86.563 183.940, 87.250 183.662 C 87.938 183.385, 87.375 183.158, 86 183.158 C 84.625 183.158, 84.063 183.385, 84.750 183.662 M 121.750 184.662 C 122.438 184.940, 123.563 184.940, 124.250 184.662 C 124.938 184.385, 124.375 184.158, 123 184.158 C 121.625 184.158, 121.063 184.385, 121.750 184.662 M 128.750 184.662 C 129.438 184.940, 130.563 184.940, 131.250 184.662 C 131.938 184.385, 131.375 184.158, 130 184.158 C 128.625 184.158, 128.063 184.385, 128.750 184.662 M 47 187.500 C 48.292 188.875, 49.574 190, 49.849 190 C 50.124 190, 49.292 188.875, 48 187.500 C 46.708 186.125, 45.426 185, 45.151 185 C 44.876 185, 45.708 186.125, 47 187.500 M 175.405 189.250 L 173.500 191.500 175.750 189.595 C 176.988 188.547, 178 187.535, 178 187.345 C 178 186.545, 177.195 187.136, 175.405 189.250 M 45.500 191 C 46.495 192.100, 47.535 193, 47.810 193 C 48.085 193, 47.495 192.100, 46.500 191 C 45.505 189.900, 44.465 189, 44.190 189 C 43.915 189, 44.505 189.900, 45.500 191 M 177.405 192.250 L 175.500 194.500 177.750 192.595 C 179.864 190.805, 180.455 190, 179.655 190 C 179.465 190, 178.453 191.012, 177.405 192.250 M 133.813 209.683 C 134.534 209.972, 135.397 209.936, 135.729 209.604 C 136.061 209.272, 135.471 209.036, 134.417 209.079 C 133.252 209.127, 133.015 209.364, 133.813 209.683 M 94.750 210.662 C 95.438 210.940, 96.563 210.940, 97.250 210.662 C 97.938 210.385, 97.375 210.158, 96 210.158 C 94.625 210.158, 94.063 210.385, 94.750 210.662 M 127.750 210.662 C 128.438 210.940, 129.563 210.940, 130.250 210.662 C 130.938 210.385, 130.375 210.158, 129 210.158 C 127.625 210.158, 127.063 210.385, 127.750 210.662 M 102.750 211.706 C 103.987 211.944, 106.013 211.944, 107.250 211.706 C 108.487 211.467, 107.475 211.272, 105 211.272 C 102.525 211.272, 101.513 211.467, 102.750 211.706 M 117.750 211.706 C 118.987 211.944, 121.013 211.944, 122.250 211.706 C 123.487 211.467, 122.475 211.272, 120 211.272 C 117.525 211.272, 116.513 211.467, 117.750 211.706 M 136.813 212.683 C 137.534 212.972, 138.397 212.936, 138.729 212.604 C 139.061 212.272, 138.471 212.036, 137.417 212.079 C 136.252 212.127, 136.015 212.364, 136.813 212.683 M 91.813 213.683 C 92.534 213.972, 93.397 213.936, 93.729 213.604 C 94.061 213.272, 93.471 213.036, 92.417 213.079 C 91.252 213.127, 91.015 213.364, 91.813 213.683 M 131.813 213.683 C 132.534 213.972, 133.397 213.936, 133.729 213.604 C 134.061 213.272, 133.471 213.036, 132.417 213.079 C 131.252 213.127, 131.015 213.364, 131.813 213.683 M 96.750 214.662 C 97.438 214.940, 98.563 214.940, 99.250 214.662 C 99.938 214.385, 99.375 214.158, 98 214.158 C 96.625 214.158, 96.063 214.385, 96.750 214.662 M 125.750 214.662 C 126.438 214.940, 127.563 214.940, 128.250 214.662 C 128.938 214.385, 128.375 214.158, 127 214.158 C 125.625 214.158, 125.063 214.385, 125.750 214.662 M 108.776 215.733 C 111.128 215.945, 114.728 215.942, 116.776 215.727 C 118.824 215.512, 116.900 215.339, 112.500 215.343 C 108.100 215.346, 106.424 215.522, 108.776 215.733" stroke="none" fill="#0b85be" fill-rule="evenodd"/><path d="M 95.450 11.391 C 79.286 14.488, 68.452 18.845, 55.611 27.412 C 35.130 41.075, 19.730 62.688, 13.237 86.880 C 10.983 95.278, 10.650 98.533, 10.612 112.500 C 10.574 126.880, 10.843 129.491, 13.270 138.283 C 24.484 178.911, 56.112 207.442, 97.239 214.031 C 107.937 215.745, 127.164 214.784, 138 211.994 C 160.131 206.295, 180.467 192.799, 194.016 174.818 C 207.970 156.300, 215 135.422, 215 112.500 C 215 65.244, 183.514 24.906, 137.288 12.940 C 127.095 10.301, 105.341 9.496, 95.450 11.391 M 97.500 14.081 C 94.200 14.542, 87.142 16.328, 81.815 18.051 C 43.035 30.594, 15.822 65.748, 13.344 106.500 C 11.555 135.921, 22.543 163.913, 43.848 184.212 C 56.624 196.386, 71.180 204.603, 88 209.136 C 95.166 211.067, 99.011 211.430, 112.500 211.449 C 131.414 211.476, 139.700 209.712, 154.944 202.418 C 167.072 196.614, 174.652 191.133, 184.068 181.357 C 193.292 171.780, 196.747 166.798, 202.500 154.774 C 209.711 139.703, 211.476 131.365, 211.449 112.500 C 211.430 99.011, 211.067 95.166, 209.136 88 C 200.125 54.566, 174.843 27.910, 142.459 17.700 C 128.537 13.310, 112.357 12.008, 97.500 14.081 M 101 38.690 C 84.173 41.504, 69.270 52.791, 63.954 66.748 C 61.386 73.491, 60.022 90.117, 61.856 92.326 C 63.155 93.891, 62.394 95, 60.021 95 C 57.839 95, 53.690 100.708, 54.268 102.916 C 54.518 103.874, 54.130 105.470, 53.404 106.462 C 51.875 108.553, 52.891 111.698, 57.398 118.839 C 59.322 121.885, 59.800 123.514, 59.139 124.769 C 56.763 129.285, 53.704 145.054, 53.662 153 C 53.570 170.382, 60.347 179.951, 74.970 183.087 C 81.130 184.408, 91.004 182.940, 98.500 179.588 L 103.500 177.352 109.613 180.206 C 125.711 187.722, 137.881 185.065, 151.303 171.103 C 163.305 158.619, 170.046 144.060, 171.956 126.500 C 173.524 112.091, 171.281 102.196, 165.604 98.476 C 163.841 97.321, 163.076 95.632, 162.562 91.757 C 160.856 78.893, 151.826 62.795, 140.127 51.758 C 128.353 40.652, 115.315 36.297, 101 38.690 M 97.782 41.553 C 83.830 44.935, 73.040 53.094, 67.385 64.537 C 64.142 71.098, 63.667 73.046, 63.218 81.616 L 62.712 91.289 69.606 90.776 C 78.298 90.129, 89.922 85.682, 100.232 79.059 L 107.964 74.091 112.475 80.413 C 122.777 94.849, 127.175 104.063, 129.368 115.806 L 130.546 122.112 132.660 119.806 C 133.822 118.538, 135.488 114.997, 136.360 111.937 C 138.185 105.538, 141.278 100.589, 145.324 97.592 C 147.534 95.954, 149.542 95.516, 154.574 95.573 C 162.107 95.658, 162.082 95.718, 158.886 85.355 C 155.228 73.493, 149.549 64.074, 140.587 55.008 C 127.929 42.203, 113.634 37.710, 97.782 41.553 M 104 79.174 C 99.193 83.227, 81.554 91.084, 74.584 92.278 L 67.814 93.438 68.423 97.469 C 70.344 110.204, 83.992 127.341, 97.454 133.925 C 113.657 141.850, 131.281 137.796, 133.443 125.648 L 134.129 121.796 131.842 123.398 C 128.542 125.710, 128 125.427, 128 121.394 C 128 115.860, 125.195 106.244, 121.321 98.500 C 118.013 91.889, 108.082 77.013, 107 77.050 C 106.725 77.059, 105.375 78.015, 104 79.174 M 64.032 96.050 C 64.049 96.847, 64.771 98.400, 65.635 99.500 C 67.162 101.443, 67.186 101.429, 66.491 99 C 65.617 95.948, 63.987 93.992, 64.032 96.050 M 59 97.692 C 59 98.072, 60.800 101.414, 63 105.117 C 67.250 112.271, 67.534 113, 66.072 113 C 65.562 113, 63.505 110.300, 61.500 107 C 58.004 101.244, 56 99.532, 56 102.300 C 56 103.015, 56.376 104.027, 56.835 104.550 C 59.365 107.427, 62.960 114.999, 61.792 114.992 C 61.081 114.988, 59.393 113.076, 58.041 110.742 C 56.198 107.562, 55.488 106.951, 55.208 108.303 C 54.865 109.951, 62.180 123.906, 66.171 129.217 L 67.842 131.442 73.421 127.599 C 76.489 125.486, 79 123.581, 79 123.367 C 79 122.815, 70.772 110.731, 69.475 109.379 C 68.884 108.762, 66.865 105.724, 64.989 102.629 C 63.112 99.533, 60.998 97, 60.289 97 C 59.580 97, 59 97.311, 59 97.692 M 147.500 98.892 C 144.645 100.136, 141.687 103.685, 142.461 104.937 C 142.822 105.522, 142.648 106, 142.072 106 C 140.239 106, 137.181 115.249, 135.459 126 C 134.043 134.843, 131.707 144.666, 130.436 147.125 C 128.556 150.759, 124.265 154, 121.333 154 C 115.450 154, 104.402 146.985, 92.187 135.494 L 84.062 127.851 80.531 130.544 C 78.589 132.025, 77 133.634, 77 134.119 C 77 134.603, 76.438 135.013, 75.750 135.028 C 75.063 135.043, 72.757 136.375, 70.627 137.987 L 66.754 140.917 73.127 147.560 C 80.233 154.967, 87.039 158.717, 103.046 164.044 C 119.035 169.366, 127.709 168.154, 136.744 159.337 C 139.360 156.784, 140.825 155.023, 140 155.424 C 139.175 155.824, 139.562 155.218, 140.861 154.076 C 142.159 152.934, 142.834 151.993, 142.361 151.985 C 141.887 151.976, 142 151.639, 142.610 151.235 C 143.221 150.831, 144.480 149.018, 145.409 147.207 C 147.061 143.983, 151.386 141.053, 152.641 142.308 C 152.990 142.656, 151.902 144.223, 150.224 145.790 C 148.547 147.358, 146.669 150.514, 146.053 152.804 C 144.552 158.378, 141.842 161.161, 133.500 165.695 C 123.801 170.967, 116.964 170.950, 101.531 165.616 C 95.498 163.531, 89.268 161.156, 87.688 160.339 C 86.107 159.521, 84.665 159.002, 84.482 159.184 C 84.300 159.367, 87.308 162.213, 91.168 165.508 C 109.722 181.352, 124.474 185.601, 137.801 178.942 C 144.876 175.406, 154.945 165.191, 159.372 157.058 L 162.193 151.874 158.097 147.977 C 154.082 144.158, 152.976 142, 155.033 142 C 155.602 142, 157.686 143.619, 159.664 145.597 C 163.851 149.784, 164.016 149.658, 167.052 140 C 169.598 131.899, 170.814 112.997, 169.119 107.862 C 168.478 105.919, 166.606 103.039, 164.960 101.461 C 162.419 99.027, 161.021 98.549, 155.733 98.306 C 152.305 98.149, 148.600 98.413, 147.500 98.892 M 114.487 99.979 C 115.398 101.454, 113.276 104.778, 110.952 105.515 C 109.731 105.903, 107.876 105.493, 106.364 104.503 C 103.040 102.325, 101.813 103.616, 104.861 106.086 C 107.703 108.390, 109.194 108.468, 112.979 106.511 C 116.961 104.452, 118.342 99, 114.882 99 C 114.332 99, 114.154 99.441, 114.487 99.979 M 87.194 109.473 C 86.275 111.491, 85.321 112, 82.462 112 C 80.330 112, 79.132 112.404, 79.500 113 C 79.840 113.550, 81.656 114, 83.536 114 C 86.097 114, 87.373 113.360, 88.626 111.449 C 89.712 109.790, 89.956 108.556, 89.322 107.922 C 88.687 107.287, 87.943 107.830, 87.194 109.473 M 93.223 114.557 C 90.623 116.377, 90.338 118.532, 92.582 119.393 C 95.369 120.463, 96.558 119.981, 94.667 118.548 C 92.906 117.212, 92.915 117.116, 94.917 116.044 C 96.944 114.960, 97.784 113, 96.223 113 C 95.795 113, 94.445 113.701, 93.223 114.557 M 158 116.393 C 158 116.609, 158.698 117.054, 159.552 117.382 C 160.442 117.723, 160.843 117.555, 160.493 116.989 C 159.906 116.038, 158 115.583, 158 116.393 M 105.150 123.570 C 104.277 125.487, 103.358 126.059, 101.536 125.820 C 100.192 125.644, 98.959 125.950, 98.796 126.500 C 98.633 127.050, 99.919 127.638, 101.654 127.806 C 104.018 128.036, 105.208 127.541, 106.404 125.834 C 107.282 124.580, 108 122.980, 108 122.277 C 108 120.124, 106.387 120.856, 105.150 123.570 M 72.750 130.613 C 68.487 133.657, 65 136.816, 65 137.633 C 65 139.425, 65.347 139.231, 74.750 132.188 C 81.247 127.322, 83.425 124.926, 81.250 125.039 C 80.838 125.060, 77.013 127.568, 72.750 130.613 M 59.886 128.750 C 55.435 140.252, 54.377 159.573, 57.778 167.243 C 63.886 181.018, 79.896 185.448, 96.704 178.013 L 101.307 175.976 96.404 172.794 C 90.588 169.020, 68.748 147.337, 64.579 141.199 L 61.657 136.898 63.725 134.831 L 65.793 132.763 63.798 129.381 C 62.700 127.522, 61.611 126, 61.376 126 C 61.142 126, 60.472 127.237, 59.886 128.750 M 78 134.689 C 78 136.559, 90.501 145.832, 91.574 144.759 C 91.786 144.547, 89.933 143.092, 87.456 141.527 C 84.980 139.961, 81.839 137.566, 80.476 136.204 C 79.114 134.842, 78 134.160, 78 134.689 M 128 136.525 C 126.625 137.334, 124.165 138.473, 122.534 139.056 C 120.181 139.896, 119.871 140.307, 121.034 141.042 C 122.304 141.846, 130 142.448, 130 141.743 C 130 141.602, 130.419 140.027, 130.930 138.243 C 131.969 134.620, 131.602 134.405, 128 136.525 M 98 138.059 C 108.690 146.675, 117.683 152, 121.545 152 C 123.345 152, 129 146.749, 129 145.077 C 129 144.485, 127.313 143.997, 125.250 143.993 C 123.188 143.990, 120.150 143.093, 118.500 142 C 116.697 140.806, 113.808 140.011, 111.261 140.007 C 108.929 140.003, 104.654 139.100, 101.761 138.001 C 95.253 135.527, 94.866 135.533, 98 138.059" stroke="none" fill="#0b141d" fill-rule="evenodd"/></svg>